<?xml version="1.0" standalone="no"?>
<!DOCTYPE svg PUBLIC "-//W3C//DTD SVG 20010904//EN"
 "http://www.w3.org/TR/2001/REC-SVG-20010904/DTD/svg10.dtd">
<svg version="1.0" xmlns="http://www.w3.org/2000/svg"
 width="116.000000pt" height="51.000000pt" viewBox="0 0 116.000000 51.000000"
 preserveAspectRatio="xMidYMid meet">
<metadata>
Created by potrace 1.10, written by Peter Selinger 2001-2011
</metadata>
<g transform="translate(0.000000,51.000000) scale(0.100000,-0.100000)"
fill="#000000" stroke="none">
<path d="M250 275 c0 -60 -3 -75 -15 -75 -8 0 -15 5 -15 10 0 6 -13 10 -30 10
-35 0 -37 -8 -9 -44 14 -18 30 -26 53 -26 55 0 64 15 68 113 l3 87 -27 0 -28
0 0 -75z"/>
<path d="M382 340 c-12 -5 -29 -25 -38 -44 -35 -72 9 -146 87 -146 55 0 90 33
96 92 5 42 3 50 -25 78 -32 31 -73 38 -120 20z m90 -65 c17 -39 -3 -75 -42
-75 -38 0 -56 32 -41 73 14 37 66 39 83 2z"/>
<path d="M630 275 c0 -60 -3 -75 -15 -75 -8 0 -15 5 -15 10 0 6 -13 10 -30 10
-28 0 -29 -1 -19 -27 13 -34 26 -43 65 -43 53 0 62 16 66 113 l3 87 -27 0 -28
0 0 -75z"/>
<path d="M762 340 c-12 -5 -29 -25 -38 -44 -35 -72 9 -146 87 -146 55 0 90 33
96 92 5 42 3 50 -25 78 -32 31 -73 38 -120 20z m90 -65 c17 -39 -3 -75 -42
-75 -23 0 -33 6 -42 25 -17 39 3 75 42 75 23 0 33 -6 42 -25z"/>
<path d="M949 203 c-9 -2 -19 -15 -22 -29 -4 -21 -1 -24 28 -24 28 0 32 3 30
27 -1 28 -9 33 -36 26z"/>
</g>
</svg>
